<?xml version="1.0" encoding="utf-8"?>
<!-- Svg Vector Icons : http://www.onlinewebfonts.com/icon -->
<!DOCTYPE svg PUBLIC "-//W3C//DTD SVG 1.1//EN" "http://www.w3.org/Graphics/SVG/1.1/DTD/svg11.dtd">
<svg version="1.1" xmlns="http://www.w3.org/2000/svg" xmlns:xlink="http://www.w3.org/1999/xlink" x="0px" y="0px" viewBox="0 0 256 256" enable-background="new 0 0 256 256" xml:space="preserve">
<metadata> Svg Vector Icons : http://www.onlinewebfonts.com/icon </metadata>
<g><g><g><path fill="#fff" d="M134.5,10.7c-16,2.9-30.1,13.4-37.3,27.9c-4.1,8.2-5.7,15.5-5.4,24.7l0.1,5.7l-4.8,0c-15.7,0.2-30.4,7.3-40,19.3c-14.3,17.9-15.5,42.2-3,61.6c2.6,4.1,8,9.8,12.2,13c4.5,3.4,12.8,7.4,18.4,8.8c11.3,2.9,24.6,1.7,34.8-3.2l3.1-1.5l1.8,2c4.4,4.9,13,10.5,19.8,13l4.3,1.5v29.2v29.2l1.1,1.6c0.6,0.9,1.7,1.8,2.4,2.1c1.9,0.7,4.6-0.2,5.8-1.8c1-1.3,1-1.8,1.1-29.9l0.1-28.6l5.6-0.3c9.6-0.5,19-3.6,26.9-8.9c4.2-2.9,10.5-9,13.4-13.2c3.3-4.8,6.5-11.6,7.9-17.2c1-3.8,1.2-6,1.4-11.8l0.1-7l2.7-3c7.5-8.2,12-18.5,13.2-29.9c1.6-15-4.4-31.3-15.7-42.2c-3-2.9-9.6-7.8-11.1-8.3c-0.6-0.2-1.7-1.8-3-4.2c-5.3-10.5-13.6-18.9-23.8-24.1C157.3,10.6,144.9,8.9,134.5,10.7z M154,21.5c7,1.8,12.8,5,18.4,10.2c4,3.7,6.8,7.7,9.6,13.7c2.3,4.9,2.4,4.9,5.4,6.5c11.2,6,19,15.9,21.9,27.8c1.3,5.5,1.3,13.6,0,19.1c-1.8,7.6-7.3,16.8-12.8,21.5c-3,2.6-3.2,3.2-2.5,8.6c1.8,15.1-5.4,30.3-18.7,39.2c-6.5,4.4-13.8,6.7-21.7,6.9l-4.3,0.1l-0.1-30.6l-0.1-30.6l10.8-9.8c13.3-12.1,13.6-12.4,13.6-14.8c0-3.6-3.6-6.1-6.8-4.6c-0.9,0.4-5.1,3.9-9.3,7.9c-4.3,4-7.8,7.2-8,7.2c-0.1,0-0.3-12.2-0.4-27.2l-0.1-27.2l-1.5-1.5c-1.7-1.6-4.1-2.1-6-1c-2.6,1.4-2.5-1.1-2.8,49.6l-0.2,46.8l-24.6-13.1c-18-9.5-25-13-26.2-13c-2.3,0-4.9,2.6-4.9,4.8c0,0.9,0.3,2.2,0.7,2.8c0.5,0.9,8,5.1,27.9,15.6l27.1,14.4l0.1,11l0.1,11l-2.7-1.2c-6.3-2.8-11.8-7-16.6-12.8c-3.3-4.1-5-4.5-8.3-2.6c-12.1,7.2-24.1,8.7-36.6,4.5c-6.3-2.1-11.2-5.2-16.2-10.3c-8.3-8.4-12.2-17.8-12.2-29.7c0-8.5,2.2-15.9,6.6-22.6c2.4-3.7,7.4-8.9,10.8-11.5c3-2.2,9.1-5.1,13.1-6.2c5.1-1.5,13.4-1.8,18.5-0.8c4.6,0.9,5.9,0.7,7.6-1.3c1.4-1.7,1.4-2.9,0-9.9c-2.2-10.8,1-23.3,8.5-32.7c6.6-8.3,16.7-14.1,27.1-15.5C142.4,19.9,149.5,20.3,154,21.5z"/></g></g></g>
</svg>